<svg width="64" height="64" viewBox="0 0 64 64" fill="none" xmlns="http://www.w3.org/2000/svg">
<path d="M50.7755 57.9157C58.7888 52.1001 63.9999 42.6586 63.9999 32C63.9999 14.3269 49.673 -1.04104e-06 31.9999 0C14.3268 -4.53352e-07 -9.2466e-05 14.3269 -9.15527e-05 32C-9.20061e-05 49.6731 14.3268 64 31.9999 64C36.867 64 41.4803 62.9134 45.6104 60.9696L37.6376 47.1603C30.3961 49.8532 22.0569 47.0127 18.0646 40.0979C13.6106 32.3833 16.2538 22.5187 23.9684 18.0647C31.683 13.6107 41.5476 16.2539 46.0016 23.9685C49.8919 30.7067 48.3678 39.0851 42.7792 44.0658L50.7755 57.9157Z" fill="black"/>
<path d="M26.5978 22.619C21.3985 25.6208 19.6171 32.2692 22.6189 37.4685C25.6207 42.6678 32.2691 44.4492 37.4684 41.4474C42.6677 38.4456 44.4491 31.7972 41.4473 26.5979C38.4455 21.3986 31.7971 19.6172 26.5978 22.619Z" fill="black"/>
</svg>
